<?xml version="1.0" encoding="utf-8"?>
<!-- Generator: Adobe Illustrator 22.0.1, SVG Export Plug-In . SVG Version: 6.00 Build 0)  -->
<svg version="1.1" id="svg" xmlns="http://www.w3.org/2000/svg" xmlns:xlink="http://www.w3.org/1999/xlink" x="0px" y="0px"
	 viewBox="0 0 400 400" style="enable-background:new 0 0 400 400;" xml:space="preserve">
<style type="text/css">
	.st0{fill:#63B3E1;}
	.st1{fill:#FFFFFF;}
</style>
<circle class="st0" cx="200.3" cy="199.3" r="199.3"/>
<g id="svgg">
	<path class="st1" d="M332.6,143.9c-0.8-1.3-3.1-4.3-5.1-6.5c-1.9-2-4.1-5.5-6-9.2c-4.6-9.4-8.6-12.6-17.9-14.6
		c-3.1-0.6-7.7-1.7-10.2-2.3c-2.5-0.6-4.6-1.2-4.6-1.2c0,0-2.8,1.6-6.1,3.5c-12.4,7.3-14.3,8.7-19.8,15.5c-2.8,3.4-8.2,8.6-12,11.7
		c-2.9,2.3-3.9,3.4-7.9,8.2c-2.8,3.4-8.2,8.6-12,11.7c-2.9,2.3-3.9,3.4-7.9,8.2c-2.8,3.4-8.2,8.6-12,11.7c-2.9,2.3-3.9,3.4-7.9,8.2
		c-5,6-11.8,12-15.4,13.5c-1.4,0.6-4.3,1.8-6.5,2.8c-2.2,1-5.8,2.4-7.9,3.1l-3.9,1.3l-1.6-1.4c-0.9-0.8-2.9-3.1-4.5-5.2
		c-3.7-4.9-7.1-8.3-12-12c-2.2-1.6-4.8-4-5.9-5.4c-4.4-5.3-5.2-6.2-7.8-8.3c-4.6-3.8-7.4-5.1-11.7-5.5c-2-0.2-6.5-0.8-10-1.2
		l-6.3-0.8l-5.7,3.3c-16.6,9.6-18.4,11.5-22.7,23.9c-2.4,6.8-2.4,9.1,0,15.9c3.3,9.7,5,12.1,12.3,18.1c3.4,2.8,8.6,8.2,11.7,12
		c2.3,2.9,3.4,3.9,8.2,7.9c3.4,2.8,8.6,8.2,11.7,12c2.3,2.9,3.4,3.9,8.2,7.9c3.3,2.7,8.6,8.1,11.7,12c3.3,4.1,4.1,4.7,13.7,11.2
		c4.8,3.2,9.2,6.2,9.7,6.6c0.8,0.6,1.1,0.6,4-0.1c4.4-1.1,13.6-2.7,14.9-2.7c1.6,0,6.8-2.9,10-5.5c2.6-2.1,3.4-3,7.8-8.3
		c1.1-1.3,3.8-3.7,5.9-5.4c5-3.7,8.4-7.1,12.1-12.1c2.8-3.8,4.4-5.2,10.4-9.8c3.4-2.6,5.9-5.3,9.7-10.3c2.7-3.6,4.3-5.1,10.2-9.6
		c3.4-2.6,5.9-5.3,9.7-10.3c2.7-3.6,4.3-5.1,10.2-9.6c3.4-2.6,5.9-5.3,9.7-10.3c2.7-3.6,4-4.9,10.5-9.8c3.4-2.6,5.9-5.4,9.8-10.6
		c1.6-2.2,3.8-4.4,5.9-6.1c7.7-6.1,11.2-10.5,14.4-17.6c1.1-2.4,3.2-6.3,4.7-8.6c1.5-2.3,3.2-5.2,3.8-6.5l1.1-2.3L332.6,143.9z"/>
	<path class="st0" d="M119.4,295.4c13.8,2.4,25.1,10.4,37.4,16.4c1.6,0.5,3.2,1,4.8,1.4c5.9,0.3,11.8-0.2,17.7-0.8
		c9.2-1.4,18.3-3.2,27.4-5.2c0-0.1,0.1-0.2,0.1-0.3c9.9-22.6,33.9-31.2,55.2-39.8c14.4-6.6,26.9-17,39.4-26.5
		c15.4-11.7,30.9-21.6,49.2-28.2c2.3-0.8,4.6-1.3,6.9-1.4c1.7-6.6,3.2-13.4,4.2-20.2c1.2-10.9,1.5-21.9,0.4-32.8
		c-0.9-5-2.1-9.9-3.8-14.6c-1.3-2.5-2.7-4.9-4.2-7.2c-0.6-0.8-1.2-1.7-1.8-2.5c0,0,0-0.1-0.1-0.1c0,0,0,0,0,0
		c-3.5-5.3-5.6-11-5.9-17.8c-0.2-4.3,0.8-8.5,2.6-12.4c-1.2-1-2.5-2-3.7-3c-10.2-7.5-20.7-13.7-32.3-18.8
		c-8.2-3.3-16.4-6.5-24.6-9.7c-3.6,0.3-7.1,0.6-10.7,1.1c-21,3-42,7.4-62.7,12.1c-20.5,4.7-40.9,10.1-60.6,17.7
		c-12,5.7-22.6,13.9-33.6,21.3c2.1-1.6,4.3-3.3,6.4-4.9c-11.4,8.9-23,16.5-35.8,23.1c-4.3,2.2-8.7,4.4-13,6.6
		c-1.2,2.5-2.4,5-3.5,7.5c-6.5,16.2-11.6,33-14.5,50.2c-0.9,9-1,18-0.2,27c1.2,7.1,3,14.1,5.5,20.9c3.7,7.8,8.4,15.1,13.5,22
		c5.7,7.2,11.8,14.1,17.7,21.2C104.1,294.1,111.5,294,119.4,295.4z M81.2,213c-2.4-6.9-2.4-9.1,0-15.9c4.3-12.4,6.1-14.3,22.7-23.9
		l5.7-3.3l6.3,0.8c3.5,0.5,8,1,10,1.2c4.3,0.4,7.1,1.8,11.7,5.5c2.6,2.1,3.4,3,7.8,8.3c1.1,1.3,3.8,3.7,5.9,5.4
		c4.9,3.7,8.4,7.1,12,12c1.6,2.1,3.6,4.5,4.5,5.2l1.6,1.4l3.9-1.3c2.1-0.7,5.7-2.1,7.9-3.1c2.2-1,5.2-2.3,6.5-2.8
		c3.7-1.5,10.5-7.4,15.4-13.5c3.9-4.8,5-5.9,7.9-8.2c3.9-3.1,9.3-8.3,12-11.7c3.9-4.8,5-5.9,7.9-8.2c3.9-3.1,9.3-8.3,12-11.7
		c3.9-4.8,5-5.9,7.9-8.2c3.9-3.1,9.3-8.3,12-11.7c4.3-5.2,5.9-6.8,9.9-9.4c3.1-2,15.7-9.6,16-9.6c0,0,2.1,0.5,4.6,1.2
		c2.5,0.6,7.1,1.7,10.2,2.3c9.3,1.9,13.3,5.1,17.9,14.6c1.8,3.7,4.1,7.2,6,9.2c2,2.1,4.4,5.1,5.1,6.5l0.7,1.3l-1.1,2.3
		c-0.6,1.3-2.3,4.2-3.8,6.5c-1.5,2.3-3.6,6.2-4.7,8.6c-3.2,7.1-6.8,11.5-14.4,17.6c-2.1,1.7-4.3,3.9-5.9,6.1
		c-3.9,5.2-6.5,8-9.8,10.6c-6.4,4.9-7.7,6.2-10.5,9.8c-3.8,5-6.3,7.7-9.7,10.3c-6,4.6-7.5,6-10.2,9.6c-3.8,5-6.3,7.7-9.7,10.3
		c-6,4.6-7.5,6-10.2,9.6c-3.8,5-6.3,7.7-9.7,10.3c-6,4.6-7.5,6-10.4,9.8c-3.7,5-7.1,8.4-12.1,12.1c-2.2,1.6-4.8,4-5.9,5.4
		c-4.4,5.3-5.2,6.2-7.8,8.3c-3.2,2.6-8.4,5.5-10,5.5c-1.3,0-10.5,1.7-14.9,2.7c-2.9,0.7-3.2,0.7-4,0.1c-0.5-0.4-4.8-3.3-9.7-6.6
		c-9.6-6.5-10.4-7.1-13.7-11.2c-3.1-3.9-8.4-9.3-11.7-12c-4.8-3.9-5.9-5-8.2-7.9c-3.1-3.9-8.3-9.3-11.7-12c-4.8-3.9-5.9-5-8.2-7.9
		c-3.1-3.9-8.3-9.3-11.7-12C86.2,225.1,84.6,222.7,81.2,213z"/>
</g>
</svg>
